<?xml version="1.0" encoding="UTF-8" standalone="no"?>
<svg
   xmlns:dc="http://purl.org/dc/elements/1.1/"
   xmlns:cc="http://creativecommons.org/ns#"
   xmlns:rdf="http://www.w3.org/1999/02/22-rdf-syntax-ns#"
   xmlns:svg="http://www.w3.org/2000/svg"
   xmlns="http://www.w3.org/2000/svg"
   xmlns:sodipodi="http://sodipodi.sourceforge.net/DTD/sodipodi-0.dtd"
   xmlns:inkscape="http://www.inkscape.org/namespaces/inkscape"
   width="4.5cm"
   height="5.1999998cm"
   viewBox="0 0 170.07874 196.53543"
   version="1.1"
   id="svg6"
   sodipodi:docname="logo.svg"
   inkscape:export-filename="C:\Users\kaued\Dropbox (Bioversity CR)\Rcode\chirps\man\figures\logo.png"
   inkscape:export-xdpi="100"
   inkscape:export-ydpi="100"
   inkscape:version="1.0beta2 (2b71d25, 2019-12-03)">
  <metadata
     id="metadata12">
    <rdf:RDF>
      <cc:Work
         rdf:about="">
        <dc:format>image/svg+xml</dc:format>
        <dc:type
           rdf:resource="http://purl.org/dc/dcmitype/StillImage" />
        <dc:title></dc:title>
      </cc:Work>
    </rdf:RDF>
  </metadata>
  <defs
     id="defs10">
    <clipPath
       clipPathUnits="userSpaceOnUse"
       id="clipPath33">
      <rect
         style="opacity:0.02000002;fill:#f9f9f9;fill-opacity:1;stroke:none;stroke-width:7.6500001;stroke-miterlimit:4;stroke-dasharray:none;stroke-opacity:1"
         id="rect35"
         width="614.25568"
         height="546.71973"
         x="-1.36356"
         y="-44.76963"
         ry="0.72283477" />
    </clipPath>
    <clipPath
       clipPathUnits="userSpaceOnUse"
       id="clipPath248">
      <path
         inkscape:export-ydpi="100"
         inkscape:export-xdpi="100"
         style="fill:#ffffff;fill-opacity:1;stroke-width:1.89437"
         inkscape:connector-curvature="0"
         id="path250"
         d="M 11.923956,178.40842 41.546357,50.592613 166.84722,12.279944 l 95.67334,89.525326 -29.6224,127.8158 -125.30045,38.31081 z" />
    </clipPath>
    <clipPath
       id="clipPath248-1"
       clipPathUnits="userSpaceOnUse">
      <path
         d="M 11.923956,178.40842 41.546357,50.592613 166.84722,12.279944 l 95.67334,89.525326 -29.6224,127.8158 -125.30045,38.31081 z"
         id="path250-8"
         inkscape:connector-curvature="0"
         style="fill:#ffffff;fill-opacity:1;stroke-width:1.89437"
         inkscape:export-xdpi="100"
         inkscape:export-ydpi="100" />
    </clipPath>
  </defs>
  <sodipodi:namedview
     pagecolor="#ffffff"
     bordercolor="#666666"
     borderopacity="1"
     objecttolerance="10"
     gridtolerance="10"
     guidetolerance="10"
     inkscape:pageopacity="0"
     inkscape:pageshadow="2"
     inkscape:window-width="1536"
     inkscape:window-height="797"
     id="namedview8"
     showgrid="false"
     inkscape:zoom="1.1893663"
     inkscape:cx="166.11521"
     inkscape:cy="89.196367"
     inkscape:window-x="0"
     inkscape:window-y="25"
     inkscape:window-maximized="0"
     inkscape:current-layer="svg6"
     units="cm"
     inkscape:snap-text-baseline="true"
     inkscape:document-rotation="0" />
  <path
     inkscape:export-ydpi="100"
     inkscape:export-xdpi="100"
     style="fill:#ffffff;fill-opacity:1;stroke-width:1.30411"
     inkscape:connector-curvature="0"
     id="path2"
     d="M 7.5039662,142.3019 V 51.979539 L 85.580817,6.810521 163.65767,51.979539 V 142.3019 l -78.076853,45.16771 z" />
  <path
     d="M 85.333882,9.8211794 161.65767,53.979539 V 142.27359 L 85.333882,186.43196 9.0101013,142.27359 V 53.979539 Z m 0,-7.6946117 L 2.3732513,50.126233 V 146.1269 L 85.333882,194.12657 168.29452,146.1269 V 50.126233 Z"
     id="path4"
     style="fill:#1f2c47;stroke-width:1.33034372;fill-opacity:1"
     inkscape:connector-curvature="0"
     inkscape:export-xdpi="100"
     inkscape:export-ydpi="100" />
  <text
     xml:space="preserve"
     style="font-style:normal;font-variant:normal;font-weight:bold;font-stretch:normal;font-size:18.66669999999999874px;line-height:1.25;font-family:sans-serif;-inkscape-font-specification:'sans-serif Bold';font-variant-ligatures:normal;font-variant-caps:normal;font-variant-numeric:normal;font-variant-east-asian:normal;text-align:start;letter-spacing:0px;word-spacing:0px;writing-mode:lr-tb;text-anchor:start;fill:#1f2c47;fill-opacity:1;stroke:none;"
     x="18.578169"
     y="136.13948"
     id="text4539"><tspan
       sodipodi:role="line"
       id="tspan4537"
       x="18.578169"
       y="136.13948">PlackettLuce</tspan></text>
  <text
     id="text70"
     y="167.56799"
     x="136.59081"
     style="font-style:normal;font-weight:normal;font-size:40px;line-height:1.25;font-family:sans-serif;fill:#000000;fill-opacity:1;stroke:none"
     xml:space="preserve"><tspan
       y="167.56799"
       x="136.59081"
       id="tspan68"
       sodipodi:role="line"></tspan></text>
  <g
     transform="matrix(0.2272958,0,0,0.2272958,39.447673,34.999819)"
     id="XMLID_1718_">
    <g
       id="XMLID_1719_">
      <path
         inkscape:connector-curvature="0"
         id="XMLID_50_"
         style="fill:#00969b"
         d="M 261.667,312.25 H 135.833 V 116.288 c 0,-17.142 13.896,-31.038 31.038,-31.038 h 63.758 c 17.142,0 31.038,13.896 31.038,31.038 V 312.25 Z" />
      <path
         inkscape:connector-curvature="0"
         id="XMLID_1720_"
         style="fill:#1f2c47"
         d="M 271.667,322.25 H 125.833 V 116.288 c 0,-22.628 18.409,-41.037 41.038,-41.037 h 63.758 c 22.628,0 41.038,18.409 41.038,41.037 z m -125.834,-20 H 251.666 V 116.288 c 0,-11.6 -9.438,-21.037 -21.038,-21.037 H 166.87 c -11.6,0 -21.038,9.438 -21.038,21.037 z" />
    </g>
    <g
       id="XMLID_1723_">
      <path
         inkscape:connector-curvature="0"
         id="XMLID_1724_"
         style="fill:#1f2c47"
         d="M 397.5,322.25 H 251.667 v -168 h 104.796 c 22.628,0 41.038,18.409 41.038,41.037 h -20 c 0,-11.6 -9.438,-21.037 -21.038,-21.037 h -84.796 v 128 H 377.5 v -53.782 h 20 z" />
    </g>
    <g
       id="XMLID_1725_">
      <path
         inkscape:connector-curvature="0"
         id="XMLID_1726_"
         style="fill:#1f2c47"
         d="M 145.833,322.25 H 0 V 175.288 C 0,152.66 18.409,134.251 41.038,134.251 h 104.796 v 188 h -0.001 z M 20,302.25 h 105.833 v -148 H 41.038 c -11.6,0 -21.038,9.438 -21.038,21.037 0,0.001 0,126.963 0,126.963 z" />
    </g>
    <g
       id="XMLID_1729_">
      <path
         inkscape:connector-curvature="0"
         id="XMLID_1730_"
         style="fill:#1f2c47"
         d="m 223.172,207.699 v 15.561 h -46.683 v -15.561 h 15.345 v -27.556 c -0.648,0.864 -1.658,1.748 -3.025,2.647 -1.37,0.902 -2.901,1.729 -4.593,2.485 -1.693,0.756 -3.422,1.37 -5.187,1.837 -1.766,0.469 -3.333,0.702 -4.701,0.702 v -15.993 c 1.151,0 2.647,-0.395 4.484,-1.188 1.837,-0.792 3.656,-1.746 5.458,-2.864 1.8,-1.116 3.421,-2.251 4.863,-3.404 1.44,-1.152 2.34,-2.089 2.701,-2.81 h 17.614 v 46.142 h 13.724 z" />
    </g>
    <g
       id="XMLID_1732_">
      <path
         inkscape:connector-curvature="0"
         id="XMLID_1733_"
         style="fill:#1f2c47"
         d="m 46.009,275.799 c 0,-3.385 0.251,-6.411 0.756,-9.077 0.503,-2.665 1.368,-5.096 2.594,-7.294 1.224,-2.196 2.88,-4.231 4.971,-6.105 2.089,-1.873 4.718,-3.709 7.889,-5.511 3.385,-1.872 6.213,-3.42 8.483,-4.646 2.269,-1.224 4.069,-2.305 5.403,-3.242 1.333,-0.936 2.286,-1.783 2.864,-2.54 0.576,-0.756 0.864,-1.638 0.864,-2.647 0,-2.016 -0.721,-3.637 -2.161,-4.863 -1.442,-1.224 -3.495,-1.837 -6.16,-1.837 -3.025,0 -5.656,0.739 -7.888,2.215 -2.234,1.478 -4.395,3.404 -6.484,5.782 L 46.118,223.283 c 1.152,-1.297 2.702,-2.556 4.647,-3.782 1.945,-1.224 4.142,-2.323 6.592,-3.296 2.448,-0.973 5.133,-1.746 8.05,-2.323 2.918,-0.576 5.96,-0.865 9.131,-0.865 7.781,0 13.741,1.694 17.884,5.079 4.142,3.387 6.214,7.961 6.214,13.724 0,2.377 -0.378,4.503 -1.135,6.376 -0.756,1.874 -1.748,3.549 -2.972,5.025 -1.226,1.478 -2.594,2.774 -4.106,3.89 -1.513,1.118 -3.063,2.145 -4.646,3.08 -1.081,0.648 -2.377,1.405 -3.891,2.27 -1.513,0.864 -3.009,1.748 -4.484,2.647 -1.478,0.902 -2.847,1.802 -4.106,2.702 -1.261,0.901 -2.215,1.712 -2.864,2.431 h 29.393 v 15.561 H 46.009 Z" />
    </g>
    <g
       id="XMLID_1735_">
      <path
         inkscape:connector-curvature="0"
         id="XMLID_1736_"
         style="fill:#1f2c47"
         d="m 335.461,242.271 c 1.962,0.38 3.768,1.062 5.415,2.042 1.646,0.983 3.055,2.218 4.228,3.705 1.171,1.489 2.074,3.199 2.708,5.13 0.632,1.933 0.95,4.006 0.95,6.223 0,2.978 -0.603,5.652 -1.805,8.027 -1.204,2.375 -2.93,4.401 -5.178,6.08 -2.249,1.677 -4.956,2.976 -8.123,3.895 -3.167,0.917 -6.713,1.377 -10.64,1.377 -9.628,0 -17.164,-2.819 -22.61,-8.455 l 8.17,-10.83 c 1.71,1.773 3.657,3.12 5.842,4.037 2.185,0.919 4.797,1.378 7.837,1.378 7.156,0 10.735,-2.627 10.735,-7.885 0,-2.85 -1.062,-5.002 -3.183,-6.46 -2.123,-1.456 -5.462,-2.185 -10.022,-2.185 h -2.85 v -10.925 h 3.135 c 3.546,0 6.318,-0.728 8.313,-2.185 1.995,-1.456 2.993,-3.387 2.993,-5.795 0,-2.09 -0.729,-3.672 -2.185,-4.75 -1.458,-1.076 -3.389,-1.615 -5.795,-1.615 -2.598,0 -4.957,0.618 -7.078,1.853 -2.123,1.235 -3.911,2.993 -5.367,5.272 l -9.595,-11.02 c 1.012,-1.33 2.342,-2.565 3.99,-3.705 1.646,-1.14 3.515,-2.104 5.605,-2.897 2.09,-0.791 4.337,-1.409 6.745,-1.853 2.406,-0.442 4.876,-0.665 7.41,-0.665 3.356,0 6.427,0.396 9.215,1.188 2.786,0.793 5.161,1.933 7.125,3.42 1.962,1.489 3.482,3.263 4.56,5.32 1.076,2.059 1.615,4.355 1.615,6.888 0,1.9 -0.301,3.705 -0.903,5.415 -0.603,1.71 -1.441,3.263 -2.517,4.655 -1.078,1.394 -2.36,2.55 -3.848,3.467 -1.488,0.919 -3.12,1.536 -4.892,1.853 z" />
    </g>
  </g>
</svg>
